<?xml version="1.0" encoding="utf-8"?>
<!-- Generator: Adobe Illustrator 16.2.1, SVG Export Plug-In . SVG Version: 6.00 Build 0)  -->
<!DOCTYPE svg PUBLIC "-//W3C//DTD SVG 1.1//EN" "http://www.w3.org/Graphics/SVG/1.1/DTD/svg11.dtd">
<svg version="1.1" id="Calque_1" xmlns="http://www.w3.org/2000/svg" xmlns:xlink="http://www.w3.org/1999/xlink" x="0px" y="0px"
	 width="351.4736328px" height="124.0585938px" viewBox="0 0 351.4736328 124.0585938"
	 enable-background="new 0 0 351.4736328 124.0585938" xml:space="preserve">
<g>
	<rect fill="none" width="351.4736328" height="124.0585938"/>
	<g>
		<path fill="#939393" d="M89.2978516,84.1240234c0,2.0878906-1.4589844,3.4267578-3.5869141,3.4267578h-4.9521484v2.5029297
			h-2.4091797v-9.3691406h7.3613281C87.8388672,80.6845703,89.2978516,82.0361328,89.2978516,84.1240234z M86.8886719,84.1240234
			c0-1.4189453-1.1240234-1.4189453-1.8466797-1.4189453h-4.2832031v2.8242188h4.2832031
			C85.7646484,85.5292969,86.8886719,85.5292969,86.8886719,84.1240234z M90.7001953,86.1181641
			c0-2.9042969,2.1953125-4.0820312,5.4609375-4.0820312c3.2519531,0,5.4609375,1.1777344,5.4609375,4.0820312
			c0,2.890625-2.2089844,4.0693359-5.4609375,4.0693359C92.8955078,90.1875,90.7001953,89.0087891,90.7001953,86.1181641z
			 M99.3193359,86.1181641c0-1.6464844-1.0449219-2.1679688-3.1582031-2.1679688
			c-2.1289062,0-3.1728516,0.5214844-3.1728516,2.1679688c0,1.6328125,1.0439453,2.1542969,3.1728516,2.1542969
			C98.2744141,88.2724609,99.3193359,87.7509766,99.3193359,86.1181641z M105.2314453,87.2832031
			c0,0.8427734,0.8701172,1.1640625,3.4257812,1.1640625c2.4765625,0,2.8789062-0.1611328,2.8789062-0.7763672
			c0-0.6025391-0.375-0.6425781-3.1464844-0.8164062c-3.4658203-0.2011719-5.1660156-0.46875-5.1660156-2.3691406
			c0-2.0605469,2.4091797-2.4492188,5.2197266-2.4492188c2.9716797,0,5.1269531,0.3886719,5.1269531,2.5566406h-2.3017578
			c0-0.65625-0.8300781-0.8164062-2.9589844-0.8164062c-2.1679688,0-2.7832031,0.1601562-2.7832031,0.6162109
			c0,0.4941406,0.4140625,0.5751953,3.1308594,0.7753906c3.0791016,0.2275391,5.1796875,0.3076172,5.1796875,2.4091797
			c0,2.2216797-2.0068359,2.6103516-5.0449219,2.6103516c-3.0390625,0-5.8496094-0.3886719-5.8496094-2.9042969H105.2314453z
			 M117.7958984,79.3457031v1.9941406h-2.2890625v-1.9941406H117.7958984z M117.7958984,82.1699219v7.8837891h-2.2890625v-7.8837891
			H117.7958984z M123.7646484,84.0839844v2.2753906c0,1.5253906,0.2949219,1.9130859,1.6855469,1.9130859
			c0.7236328,0,1.125,0,2.0488281-0.1328125v1.8466797c-0.7636719,0.1337891-1.6328125,0.2011719-2.6914062,0.2011719
			c-2.0332031,0-3.3457031-0.7636719-3.3457031-2.5029297v-3.6005859h-2.0742188v-1.9140625h2.0742188v-1.6328125l2.3027344-0.65625
			v2.2890625h3.734375v1.9140625H123.7646484z M131.5244141,79.3457031v1.9941406h-2.2890625v-1.9941406H131.5244141z
			 M131.5244141,82.1699219v7.8837891h-2.2890625v-7.8837891H131.5244141z M144.2373047,82.1699219l-4.0009766,7.8837891h-3.2666016
			l-3.9873047-7.8837891h2.5419922l3.0917969,6.2636719l3.0791016-6.2636719H144.2373047z M153.0693359,87.2294922h2.2753906
			c-0.5224609,2.0068359-2.4765625,2.9580078-5.3945312,2.9580078c-2.9980469,0-5.3261719-1.1787109-5.3261719-4.0693359
			c0-2.9042969,2.2617188-4.0820312,5.4609375-4.0820312c2.9970703,0,5.3925781,1.0302734,5.3925781,4.6171875h-8.5117188
			c0.2539062,1.2587891,1.4589844,1.6738281,2.984375,1.6738281
			C151.5302734,88.3271484,152.4931641,88.0322266,153.0693359,87.2294922z M147.0458984,85.1953125h5.9824219
			c-0.3876953-1.1113281-1.5117188-1.4189453-2.9570312-1.4189453
			C148.5048828,83.7763672,147.4072266,84.0839844,147.0458984,85.1953125z M175,79.3457031v10.7080078h-2.2880859v-1.2314453
			c-0.8574219,0.8964844-2.2353516,1.3652344-3.9355469,1.3652344c-2.5292969,0-4.6972656-1.0576172-4.6972656-4.0693359
			c0-3.0107422,2.1679688-4.0820312,4.6972656-4.0820312c1.7001953,0,3.078125,0.46875,3.9355469,1.3652344v-4.0556641H175z
			 M172.7119141,86.1181641c0-1.5654297-1.125-2.1679688-3.171875-2.1679688c-2.0478516,0-3.1591797,0.6025391-3.1591797,2.1679688
			c0,1.5527344,1.1113281,2.1542969,3.1591797,2.1542969C171.5869141,88.2724609,172.7119141,87.6708984,172.7119141,86.1181641z
			 M179.1601562,79.3457031v1.9941406h-2.2890625v-1.9941406H179.1601562z M179.1601562,82.1699219v7.8837891h-2.2890625v-7.8837891
			H179.1601562z M191.7529297,82.1699219v6.625c0,3.2119141-2.1542969,4.6044922-5.1396484,4.6044922
			c-2.2880859,0-4.1757812-0.4287109-4.9384766-0.6289062v-1.8466797c0.9238281,0.1728516,2.6904297,0.5615234,4.4296875,0.5615234
			c2.3691406,0,3.2529297-0.9101562,3.3466797-2.9316406c-0.8027344,0.8837891-2.1279297,1.40625-3.9882812,1.40625
			c-2.7041016,0-4.6308594-1.1787109-4.6308594-3.9619141c0-2.7841797,1.9267578-3.9619141,4.6308594-3.9619141
			c1.8730469,0,3.1982422,0.5224609,3.9882812,1.4052734v-1.2714844H191.7529297z M189.4511719,85.9980469
			c0-1.4453125-1.0039062-2.0478516-3.1591797-2.0478516c-2.1542969,0-3.171875,0.6025391-3.171875,2.0478516
			s1.0175781,2.0478516,3.171875,2.0478516C188.4472656,88.0458984,189.4511719,87.4433594,189.4511719,85.9980469z
			 M195.9121094,79.3457031v1.9941406h-2.2880859v-1.9941406H195.9121094z M195.9121094,82.1699219v7.8837891h-2.2880859v-7.8837891
			H195.9121094z M201.8808594,84.0839844v2.2753906c0,1.5253906,0.2949219,1.9130859,1.6865234,1.9130859
			c0.7226562,0,1.1240234,0,2.0478516-0.1328125v1.8466797c-0.7626953,0.1337891-1.6328125,0.2011719-2.6904297,0.2011719
			c-2.0341797,0-3.3466797-0.7636719-3.3466797-2.5029297v-3.6005859h-2.0742188v-1.9140625h2.0742188v-1.6328125l2.3027344-0.65625
			v2.2890625h3.734375v1.9140625H201.8808594z M217.8320312,86.078125v3.9755859h-2.3017578v-0.9775391
			c-1.3925781,0.6826172-2.9316406,1.1113281-4.7919922,1.1113281c-2.2080078,0-3.5859375-0.7099609-3.5859375-2.4892578
			c0-2.0488281,2.2480469-2.6904297,4.7509766-2.6904297c1.3515625,0,2.5966797,0.2138672,3.6269531,0.5615234
			c0-1.4980469-1.9277344-1.6191406-2.9980469-1.6191406c-1.0302734,0-2.2890625,0.09375-3.9082031,0.5751953l-0.8164062-1.6728516
			c1.6064453-0.5224609,3.1855469-0.8164062,4.8320312-0.8164062
			C215.9316406,82.0361328,217.8056641,83.09375,217.8320312,86.078125z M215.5302734,86.9882812
			c-0.8037109-0.2548828-1.8867188-0.4814453-3.3466797-0.4814453c-1.7128906,0-2.7431641,0.2939453-2.7431641,1.0976562
			c0,0.8291016,0.7626953,0.8964844,1.9541016,0.8964844c1.2451172,0,2.9580078-0.3886719,4.1357422-0.8964844V86.9882812z
			 M221.9912109,79.3457031v10.7080078h-2.2890625V79.3457031H221.9912109z M235.1044922,82.1699219H238.4375v1.9140625h-3.3330078
			v5.9697266h-2.3017578v-5.9697266h-2.0742188v-1.9140625h2.0742188v-0.5888672
			c0-1.6054688,0.9628906-2.3691406,3.265625-2.3691406c0.7890625,0,1.2050781,0,2.3691406,0.1337891v1.6201172
			c-0.5224609-0.0400391-1.0576172-0.0673828-1.6464844-0.0673828
			C235.4794922,80.8984375,235.1445312,81.1796875,235.1044922,82.1699219z M242.3964844,79.3457031v10.7080078h-2.2890625
			V79.3457031H242.3964844z M244.0683594,86.1181641c0-2.9042969,2.1953125-4.0820312,5.4609375-4.0820312
			c3.2519531,0,5.4609375,1.1777344,5.4609375,4.0820312c0,2.890625-2.2089844,4.0693359-5.4609375,4.0693359
			C246.2636719,90.1875,244.0683594,89.0087891,244.0683594,86.1181641z M252.6884766,86.1181641
			c0-1.6464844-1.0449219-2.1679688-3.1591797-2.1679688c-2.1279297,0-3.171875,0.5214844-3.171875,2.1679688
			c0,1.6328125,1.0439453,2.1542969,3.171875,2.1542969C251.6435547,88.2724609,252.6884766,87.7509766,252.6884766,86.1181641z
			 M273.1230469,82.1699219l-3.5478516,7.8837891h-3.0517578l-2.3144531-5.4882812l-2.3154297,5.4882812h-3.0517578
			l-3.546875-7.8837891h2.5556641l2.5839844,6.0898438l2.4091797-6.0898438h2.7294922l2.4101562,6.0761719l2.5820312-6.0761719
			H273.1230469z"/>
		<g>
			<path d="M89.6845703,52.5107422v15.5H78.3496094V57.1025391c0-4.8652344-1.6455078-6.9423828-6.7470703-6.9423828
				c-3.3515625,0-6.8945312,1.4638672-9.1142578,3.5888672v14.2617188H51.1533203V40.5048828h11.3349609v3.9873047
				c3.4013672-2.3623047,7.7451172-4.2509766,13.6962891-4.2509766
				C82.5615234,40.2412109,89.6845703,42.2607422,89.6845703,52.5107422z M152.7880859,31.8691406h-11.3359375v8.6357422h-6.0839844
				v9.1904297h6.0839844v18.3154297h22.6699219v-9.21875h-11.3339844v-9.0966797h11.3339844v-9.1904297h-11.3339844V31.8691406z
				 M132.2958984,56.1201172h-26.4804688c0.9296875,2.9785156,4.0488281,3.7226562,7.1201172,3.7226562
				c3.0244141,0,4.6982422-0.1552734,6.3017578-0.9902344h12.3339844
				c-1.7949219,6.6035156-7.7636719,9.8330078-18.6357422,9.8330078c-10.9365234,0-18.5234375-4.0957031-18.5234375-14.4277344
				c0-10.3310547,7.5869141-14.4277344,18.9892578-14.4277344
				C124.8974609,39.8300781,132.2958984,43.9267578,132.2958984,56.1201172z M120.4326172,49.8798828
				c-1.3066406-1.8583984-4.1142578-2.7207031-7.0927734-2.7207031c-2.9794922,0-5.7568359,0.8623047-6.9619141,2.7207031
				H120.4326172z M195.8447266,55.1884766c-2.1308594,2.0400391-5.5292969,3.4453125-8.7470703,3.4453125
				c-4.8955078,0-6.5722656-1.9941406-6.5722656-6.6621094V40.5048828h-11.3349609v15.9082031
				c0,9.8349609,7.3916016,11.7382812,13.5107422,11.7382812c5.7109375,0,9.8798828-1.8125,13.1435547-4.0791016
				l-0.0009766,3.9384766h11.3359375l0.0009766-27.5058594h-11.3359375V55.1884766z M260.4267578,40.0683594
				c-6.6875,0-10.6679688,2.1074219-13.4169922,5.2988281c-2.1533203-4.03125-6.8759766-5.2988281-10.3115234-5.2988281
				c-6.6875,0-9.9404297,2.7480469-12.3681641,5.0380859v-4.6015625h-11.3349609v27.5039062l11.3349609,0.0019531V53.1689453
				c2.3359375-2.2890625,4.671875-3.4804688,7.4667969-3.4804688c4.03125,0,5.2675781,2.015625,5.2675781,6.7333984v11.5888672
				h11.3349609l-0.0166016-15.1308594c2.3359375-2.2910156,4.3476562-3.1914062,7.1425781-3.1914062
				c4.0302734,0,5.2675781,2.015625,5.2675781,6.7333984v11.5888672h11.3359375V51.4746094
				C272.1289062,41.9921875,265.2373047,40.0683594,260.4267578,40.0683594z M34.0029297,40.5048828l0.0507812,27.5058594
				h11.2851562l-0.0507812-27.5058594H34.0029297z M45.3388672,26.2011719H34.0029297v11.3349609h11.3359375V26.2011719z"/>
			<path fill="#939393" d="M294.7988281,34.0058594v11.3349609h11.3349609v11.3359375H317.46875V34.0058594H294.7988281z
				 M294.7988281,56.6767578h-11.3349609v11.3339844h11.3349609V56.6767578z"/>
		</g>
	</g>
</g>
</svg>
